# AST/ASF file generated using VICON BodyLanguage
# -----------------------------------------------
:version 1.10
:name VICON
:units
  mass 1.0
  length 0.45
  angle deg
:documentation
   .ast/.asf automatically generated from VICON data using
   VICON BodyBuilder and BodyLanguage model FoxedUp or BRILLIANT.MOD
:root
   order TX TY TZ RX RY RZ
   axis XYZ
   position 0 0 0  
   orientation 0 0 0 
:bonedata
  begin
     id 1 
     name lhipjoint
     direction 0.612567 -0.751349 0.245431 
     length 2.42285 
     axis 0 0 0  XYZ
  end
  begin
     id 2 
     name lfemur
     direction 0.34202 -0.939693 0  
     length 7.11304  
     axis 0 0 20  XYZ
    dof rx ry rz
    limits (-160.0 20.0)
           (-70.0 70.0)
           (-60.0 70.0)
  end
  begin
     id 3 
     name ltibia
     direction 0.34202 -0.939693 0   
     length 7.84529   
     axis 0 0 20   XYZ
    dof rx
    limits (-10.0 170.0)
  end
  begin
     id 4 
     name lfoot
     direction 0.0779239 -0.214094 0.9737   
     length 1.97176   
     axis -90 7.62852e-016 20   XYZ
    dof rx rz
    limits (-45.0 90.0)
           (-70.0 20.0)
  end
  begin
     id 5 
     name ltoes
     direction 1.53565e-011 -4.21709e-011 1   
     length 0.993197   
     axis -90 7.62852e-016 20   XYZ
    dof rx
    limits (-90.0 20.0)
  end
  begin
     id 6 
     name rhipjoint
     direction -0.665722 -0.709315 0.231701   
     length 2.56642  
     axis 0 0 0  XYZ 
  end
  begin
     id 7 
     name rfemur
     direction -0.34202 -0.939693 0   
     length 7.32108   
     axis 0 0 -20   XYZ
    dof rx ry rz
    limits (-160.0 20.0)
           (-70.0 70.0)
           (-70.0 60.0)
  end
  begin
     id 8 
     name rtibia
     direction -0.34202 -0.939693 0   
     length 7.81254   
     axis 0 0 -20   XYZ
    dof rx
    limits (-10.0 170.0)
 end
 begin
     id 9 
     name rfoot
     direction -0.0832806 -0.228812 0.969902   
     length 2.08278  
     axis -90 -7.62852e-016 -20   XYZ
    dof rx rz
    limits (-45.0 90.0)
           (-20.0 70.0)
  end
  begin
     id 10 
     name rtoes
     direction -1.53589e-011 -4.22086e-011 1   
     length 1.04609   
     axis -90 -7.62852e-016 -20   XYZ
    dof rx
    limits (-90.0 20.0)
  end
  begin
     id 11 
     name lowerback
     direction -0.00506013 0.988403 -0.151766   
     length 2.01978   
     axis 0 0 0   XYZ
    dof rx ry rz
    limits (-20.0 45.0)
           (-30.0 30.0)
           (-30.0 30.0)
  end
  begin
     id 12 
     name upperback
     direction -0.00836389 0.99968 0.0238859   
     length 2.01276   
     axis 0 0 0   XYZ
    dof rx ry rz
    limits (-20.0 45.0)
           (-30.0 30.0)
           (-30.0 30.0)
  end
  begin
     id 13 
     name thorax
     direction -0.00684136 0.995386 0.0957043   
     length 2.07303   
     axis 0 0 0   XYZ
    dof rx ry rz
    limits (-20.0 45.0)
           (-30.0 30.0)
           (-30.0 30.0)
  end
  begin
     id 14 
     name lowerneck
     direction -0.0161045 0.999661 0.0204485   
     length 1.91243   
     axis 0 0 0   XYZ
    dof rx ry rz
    limits (-20.0 45.0)
           (-30.0 30.0)
           (-30.0 30.0)
  end
  begin
     id 15 
     name upperneck
     direction 0.0553583 0.990946 -0.122319   
     length 1.91574   
     axis 0 0 0   XYZ
    dof rx ry rz
    limits (-20.0 45.0)
           (-30.0 30.0)
           (-30.0 30.0)
  end
  begin
     id 16
     name head
     direction 0.0180273 0.998839 -0.0446756  
     length 1.92693  
     axis 0 0 0   XYZ
    dof rx ry rz
    limits (-20.0 45.0)
           (-30.0 30.0)
           (-30.0 30.0)
  end
  begin
     id 17 
     name lclavicle
     direction 0.945646 0.319323 -0.0615358  
     length 4.0076  
     axis 0 0 0   XYZ
    dof ry rz
    limits (-20.0 10.0)
           (0.0 20.0)
  end
  begin
     id 18 
     name lhumerus
     direction 1 -4.48967e-011 -2.79996e-027   
     length 5.64147   
     axis 180 -30 -90   XYZ
    dof rx ry rz
    limits (-60.0 90.0)
           (-90.0 90.0)
           (-90.0 90.0)
  end
  begin
     id 19
     name lradius
     direction 1 -4.48976e-011 -9.5122e-027   
     length 2.86444   
     axis 180 -30 -90   XYZ
    dof rx
    limits (-10.0 170.0)
  end
  begin
     id 20
     name lwrist
     direction 1 -4.48983e-011 -1.24047e-026   
     length 1.43222   
     axis 9.05591e-015 90 90   XYZ
    dof ry
    limits (-180.0 0.0)
 end
  begin
     id 21 
     name lhand
     direction 1 -4.4892e-011 -2.48094e-026   
     length 0.722123   
     axis 1.58305e-014 90 90   XYZ
    dof rx rz
    limits (-90.0 90.0)
           (-45.0 45.0)
  end
  begin
     id 22 
     name lfingers
     direction 1 -4.48895e-011 -4.96187e-026   
     length 0.582194   
     axis 3.1661e-014 90 90   XYZ
    dof rx
    limits (0.0 90.0)
  end
  begin
     id 23
     name lthumb
     direction 0.707107 -6.34961e-011 0.707107   
     length 0.835918   
     axis -90 45 2.85299e-015   XYZ
    dof rx rz
    limits (-45.0 45.0)
           (-45.0 45.0)
  end
  begin
     id 24 
     name rclavicle
     direction -0.932635 0.324218 -0.15835   
     length 3.65819  
     axis 0 0 0   XYZ 
    dof ry rz
    limits (-10.0 20.0)
           (-20.0 0.0)
  end
  begin
     id 25 
     name rhumerus
     direction -1 -4.48965e-011 -4.02296e-027  
     length 5.44729   
     axis 180 30 90   XYZ
    dof rx ry rz
    limits (-90.0 60.0)
           (-90.0 90.0)
           (-90.0 90.0)
  end
  begin
     id 26 
     name rradius
     direction -1 -4.48957e-011 -8.81087e-027   
     length 3.08821   
     axis 180 30 90   XYZ
    dof rx
    limits (-10.0 170.0)
  end
  begin
     id 27 
     name rwrist
     direction -1 -4.49015e-011 -1.24047e-026   
     length 1.5441   
     axis 9.05591e-015 -90 -90   XYZ
    dof ry
    limits (-180.0 0.0)
  end
  begin
     id 28
     name rhand
     direction -1 -4.4891e-011 -2.48094e-026   
     length 0.821049   
     axis 1.58305e-014 -90 -90   XYZ
    dof rx rz
    limits (-90.0 90.0)
           (-45.0 45.0)
  end
  begin
     id 29
     name rfingers
     direction -1 -4.48985e-011 -4.96187e-026   
     length 0.661951   
     axis 3.1661e-014 -90 -90   XYZ
    dof rx
    limits (0.0 90.0)
  end
  begin
     id 30
     name rthumb
     direction -0.707107 -6.34906e-011 0.707107   
     length 0.950433   
     axis -90 -45 -2.85299e-015   XYZ
    dof rx rz
    limits (-45.0 45.0)
           (-45.0 45.0)
  end
:hierarchy
  begin
    root lhipjoint rhipjoint lowerback
    lhipjoint lfemur
    lfemur ltibia
    ltibia lfoot
    lfoot ltoes
    rhipjoint rfemur
    rfemur rtibia
    rtibia rfoot
    rfoot rtoes
    lowerback upperback
    upperback thorax
    thorax lowerneck lclavicle rclavicle
    lowerneck upperneck
    upperneck head
    lclavicle lhumerus
    lhumerus lradius
    lradius lwrist
    lwrist lhand lthumb
    lhand lfingers
    rclavicle rhumerus
    rhumerus rradius
    rradius rwrist
    rwrist rhand rthumb
    rhand rfingers
  end

#!OML:ASF F:\VICON\USERDATA\INSTALL\rory3\rory3.ASF
:FULLY-SPECIFIED
:DEGREES
1816
root 0.732695 17.9402 0.036404 -30.5997 87.7015 -53.0556
lowerback 28.2781 -1.30201 2.12482
upperback 19.4316 1.10049 1.35392
thorax 6.52816 1.49127 0.160816
lowerneck 16.7003 -3.2158 -4.65078
upperneck 4.684 -4.61273 5.96806
head -1.10671 -2.38092 3.05201
rclavicle 1.15295e-014 -1.11319e-014
rhumerus 21.3652 13.8612 -92.2999
rradius 111.067
rwrist 22.127
rhand 27.7071 -0.743713
rfingers 7.12502
rthumb 51.6342 -21.0641
lclavicle 1.15295e-014 -1.11319e-014
lhumerus 31.2822 -23.7594 86.7188
lradius 104.569
lwrist 21.7941
lhand -16.5519 23.3316
lfingers 7.12502
lthumb 9.66772 53.0898
rfemur -35.193 0.801897 21.2639
rtibia 14.93
rfoot -6.06182 -7.15002
rtoes -14.1912
lfemur -37.597 3.5272 -18.0528
ltibia 21.4231
lfoot -7.92241 4.7115
ltoes -14.8973
1817
root 0.746811 17.947 0.0367947 -29.4792 87.5656 -51.4659
lowerback 28.0415 -1.2063 2.10327
upperback 19.098 1.13971 1.32451
thorax 6.22059 1.48726 0.120821
lowerneck 15.4044 -3.26665 -4.54711
upperneck 5.63294 -4.6502 5.99405
head -0.568823 -2.37726 2.98006
rclavicle -1.19271e-014 -4.37326e-015
rhumerus 20.6071 13.6675 -92.3723
rradius 109.562
rwrist 22.1397
rhand 27.3257 -0.636966
rfingers 7.12502
rthumb 51.2874 -21.1566
lclavicle -1.19271e-014 -4.37326e-015
lhumerus 30.7431 -23.7295 86.7753
lradius 102.672
lwrist 21.8109
lhand -16.7275 23.4952
lfingers 7.12502
lthumb 9.49832 53.2611
rfemur -34.5591 0.944744 21.2918
rtibia 14.8042
rfoot -6.09088 -7.1608
rtoes -14.0478
lfemur -36.9798 3.69174 -18.0139
ltibia 21.3987
lfoot -8.04528 4.69941
ltoes -14.848
1818
root 0.768424 17.9593 0.0363419 -29.4377 87.5764 -50.7652
lowerback 27.9233 -1.18758 2.05481
upperback 18.8134 1.09974 1.29604
thorax 5.92174 1.44767 0.11496
lowerneck 14.1891 -3.29214 -4.4772
upperneck 6.4357 -4.66612 6.01627
head -0.100412 -2.36431 2.92372
rclavicle -2.98177e-014 -2.04748e-014
rhumerus 19.8657 13.5466 -92.4119
rradius 108.009
rwrist 22.1994
rhand 26.9216 -0.499896
rfingers 7.12502
rthumb 50.9193 -21.2262
lclavicle -2.98177e-014 -2.04748e-014
lhumerus 30.2211 -23.6575 86.8045
lradius 100.785
lwrist 21.8779
lhand -16.7619 23.6304
lfingers 7.12502
lthumb 9.4651 53.3978
rfemur -33.5752 1.0188 21.2371
rtibia 14.5026
rfoot -6.03484 -7.27916
rtoes -14.6419
lfemur -36.1374 3.53008 -17.9381
ltibia 21.4189
lfoot -8.31959 4.83363
ltoes -14.5057
1819
root 0.793204 17.9684 0.0376446 -35.5772 87.3315 -56.2555
lowerback 27.7706 -1.18774 2.36289
upperback 18.5287 1.10692 1.33215
thorax 5.64645 1.45982 -0.029735
lowerneck 12.9294 -3.31964 -4.42109
upperneck 7.33346 -4.69003 6.09943
head 0.404594 -2.35239 2.8948
rclavicle -1.94809e-014 -2.67365e-014
rhumerus 19.1308 13.3751 -92.4302
rradius 106.424
rwrist 22.2041
rhand 26.3996 -0.220238
rfingers 7.12502
rthumb 50.4429 -21.2073
lclavicle -1.94809e-014 -2.67365e-014
lhumerus 29.6358 -23.6022 86.898
lradius 98.9356
lwrist 22.0084
lhand -16.6372 23.74
lfingers 7.12502
lthumb 9.58541 53.502
rfemur -32.6085 1.10591 21.6344
rtibia 14.2607
rfoot -6.02986 -7.30581
rtoes -15.2174
lfemur -35.2408 3.39984 -17.4284
ltibia 21.3213
lfoot -8.46284 5.04873
ltoes -14.631
1820
root 0.820142 17.9757 0.041815 -39.5347 87.1484 -59.5218
lowerback 27.5659 -1.16931 2.5368
upperback 18.2734 1.11275 1.36359
thorax 5.43039 1.46013 -0.101361
lowerneck 11.4406 -3.34797 -4.44247
upperneck 8.5377 -4.72669 6.20481
head 1.0503 -2.33883 2.88819
rclavicle 9.14409e-015 -5.06901e-015
rhumerus 18.4192 13.2241 -92.4396
rradius 104.823
rwrist 22.0641
rhand 25.9503 -0.0149519
rfingers 7.12502
rthumb 50.0322 -21.2208
lclavicle 9.14409e-015 -5.06901e-015
lhumerus 29.0118 -23.5122 87.0172
lradius 96.9895
lwrist 22.1974
lhand -16.3493 23.7382
lfingers 7.12502
lthumb 9.86318 53.4872
rfemur -31.6389 1.25905 21.8618
rtibia 14.1323
rfoot -6.29316 -7.32859
rtoes -14.3258
lfemur -34.2632 3.46539 -17.1298
ltibia 21.1398
lfoot -8.51409 5.03356
ltoes -15.0673
1821
root 0.850784 17.9877 0.0389751 -32.1416 87.5222 -51.5061
lowerback 27.3145 -1.12787 2.08036
upperback 17.9731 1.00923 1.19115
thorax 5.17314 1.35929 -0.0188672
lowerneck 10.1651 -3.38225 -4.27197
upperneck 9.53374 -4.75065 6.15214
head 1.58572 -2.31668 2.8077
rclavicle -7.55382e-015 -2.21645e-014
rhumerus 17.6211 13.1735 -92.49
rradius 103.226
rwrist 21.8715
rhand 25.4894 0.170104
rfingers 7.12502
rthumb 49.6101 -21.255
lclavicle -7.55382e-015 -2.21645e-014
lhumerus 28.3983 -23.3851 87.0652
lradius 94.9193
lwrist 22.4582
lhand -16.0726 23.8878
lfingers 7.12502
lthumb 10.1301 53.6239
rfemur -30.7271 1.02465 21.3112
rtibia 13.9093
rfoot -6.34083 -7.17861
rtoes -13.7561
lfemur -33.4257 3.51338 -17.7792
ltibia 21.096
lfoot -8.62504 4.85295
ltoes -15.4439
1822
root 0.875685 17.9952 0.0332009 -26.8488 87.6766 -45.7458
lowerback 27.0689 -1.0884 1.87015
upperback 17.5989 0.94189 1.07188
thorax 4.83191 1.28968 -0.0265081
lowerneck 9.06088 -3.43379 -3.87018
upperneck 10.3688 -4.77367 5.9001
head 2.03031 -2.2909 2.62679
rclavicle 5.80451e-014 4.94974e-014
rhumerus 16.851 13.1867 -92.4174
rradius 101.548
rwrist 21.6012
rhand 24.8215 0.250114
rfingers 7.12502
rthumb 48.9972 -21.4836
lclavicle 5.80451e-014 4.94974e-014
lhumerus 27.7823 -23.3445 87.0733
lradius 92.8451
lwrist 22.8876
lhand -16.1034 24.0165
lfingers 7.12502
lthumb 10.1004 53.7541
rfemur -30.0327 0.819976 21.0508
rtibia 13.7073
rfoot -6.26144 -7.04965
rtoes -14.2479
lfemur -32.8025 3.49395 -18.1053
ltibia 21.0912
lfoot -8.80509 4.84045
ltoes -15.5642
1823
root 0.893546 17.9954 0.0310999 -35.5151 87.3032 -53.9947
lowerback 26.8783 -1.03476 2.42453
upperback 16.9935 1.01779 1.12718
thorax 4.20626 1.32849 -0.314327
lowerneck 8.61815 -3.49878 -3.51096
upperneck 11.2726 -4.82252 5.77885
head 2.39681 -2.27813 2.51432
rclavicle 4.21423e-014 2.98177e-014
rhumerus 15.6631 12.9918 -92.4152
rradius 99.7628
rwrist 21.2905
rhand 24.0121 0.584224
rfingers 7.12502
rthumb 48.2526 -21.5099
lclavicle 4.21423e-014 2.98177e-014
lhumerus 26.716 -23.6142 87.2614
lradius 90.7957
lwrist 23.4792
lhand -16.4314 24.1719
lfingers 7.12502
lthumb 9.78399 53.9247
rfemur -29.4489 1.01736 21.6084
rtibia 13.6114
rfoot -6.27244 -7.12124
rtoes -15.0317
lfemur -32.2452 3.5272 -17.4652
ltibia 21.0211
lfoot -8.89421 4.97028
ltoes -15.7883
1824
root 0.920229 17.9994 0.0251689 -38.5491 87.034 -56.5189
lowerback 26.2449 -1.02574 2.65382
upperback 16.7849 1.00154 1.19711
thorax 4.25167 1.31642 -0.36035
lowerneck 7.58652 -3.48637 -3.69995
upperneck 12.2722 -4.82243 5.80431
head 2.92531 -2.25548 2.54611
rclavicle 3.10104e-014 1.2921e-014
rhumerus 15.1568 13.1277 -92.0886
rradius 97.8563
rwrist 20.7882
rhand 23.3184 1.02811
rfingers 7.12502
rthumb 47.6129 -21.3633
lclavicle 3.10104e-014 1.2921e-014
lhumerus 26.2756 -23.5837 87.311
lradius 88.7551
lwrist 24.0345
lhand -16.7663 24.8675
lfingers 7.12502
lthumb 9.46083 54.6351
rfemur -28.6722 1.04112 21.9396
rtibia 13.4005
rfoot -6.28398 -7.02504
rtoes -15.3195
lfemur -31.5526 3.52088 -17.1006
ltibia 21.027
lfoot -9.09128 5.0742
ltoes -15.8346
1825
root 0.956115 18.0098 0.0166137 -32.5966 87.0835 -49.9871
lowerback 25.7731 -0.989376 2.65254
upperback 16.5101 0.971588 0.928632
thorax 4.15029 1.29625 -0.647003
lowerneck 6.65107 -3.52147 -3.6291
upperneck 13.2291 -4.87767 5.9315
head 3.43237 -2.24697 2.5701
rclavicle -1.19271e-015 1.78906e-015
rhumerus 14.4707 13.0639 -92.1034
rradius 96.0834
rwrist 20.0888
rhand 22.8601 1.26926
rfingers 7.12502
rthumb 47.1896 -21.313
lclavicle -1.19271e-015 1.78906e-015
lhumerus 25.8038 -23.6667 87.1608
lradius 86.5415
lwrist 24.2361
lhand -16.6298 25.2907
lfingers 7.12502
lthumb 9.59257 55.0523
rfemur -27.7447 0.886244 21.6836
rtibia 13.0831
rfoot -6.2223 -6.75317
rtoes -14.8082
lfemur -30.7242 3.44297 -17.3638
ltibia 21.0832
lfoot -9.48762 5.19482
ltoes -15.3581
1826
root 0.990779 18.0175 0.0112388 -29.5568 87.088 -46.4089
lowerback 25.178 -0.921931 2.65206
upperback 16.2411 0.97816 0.813888
thorax 4.11415 1.28446 -0.771199
lowerneck 6.04524 -3.59979 -3.5011
upperneck 13.8197 -4.9768 5.90531
head 3.75325 -2.27055 2.53306
rclavicle -7.15625e-015 -1.35174e-014
rhumerus 13.8013 13.0622 -91.9281
rradius 94.276
rwrist 19.2941
rhand 22.443 1.28231
rfingers 7.12502
rthumb 46.8037 -21.4699
lclavicle -7.15625e-015 -1.35174e-014
lhumerus 25.2703 -23.8223 87.1631
lradius 84.3022
lwrist 24.4465
lhand -16.6224 24.9928
lfingers 7.12502
lthumb 9.59966 54.7541
rfemur -26.9613 0.773705 21.5605
rtibia 12.9686
rfoot -6.24194 -6.55175
rtoes -14.3992
lfemur -29.8739 3.31353 -17.4629
ltibia 20.945
lfoot -9.77322 5.37486
ltoes -15.2621
1827
root 1.02248 18.0216 0.00932547 -31.2138 87.0181 -47.6328
lowerback 24.5247 -0.906263 2.75558
upperback 15.9382 0.933114 0.79002
thorax 4.06826 1.24637 -0.844483
lowerneck 5.41886 -3.64869 -3.34359
upperneck 14.4316 -5.03209 5.80327
head 4.08349 -2.27262 2.46508
rclavicle 4.37326e-015 -3.18055e-015
rhumerus 13.2149 13.2607 -91.6737
rradius 92.3567
rwrist 18.384
rhand 21.7846 1.29685
rfingers 7.12502
rthumb 46.1938 -21.7165
lclavicle 4.37326e-015 -3.18055e-015
lhumerus 24.6516 -23.9128 87.1008
lradius 82.1676
lwrist 24.7117
lhand -16.7194 24.8737
lfingers 7.12502
lthumb 9.50607 54.6392
rfemur -26.4063 0.738171 21.6903
rtibia 13.053
rfoot -6.37539 -6.47058
rtoes -14.8626
lfemur -29.0941 3.2866 -17.3261
ltibia 20.6232
lfoot -9.78742 5.41829
ltoes -15.3567
1828
root 1.0546 18.0335 0.00808775 -30.7243 87.0311 -46.7467
lowerback 23.8304 -0.864582 2.73601
upperback 15.6236 0.894936 0.732324
thorax 4.03117 1.20294 -0.886124
lowerneck 4.60017 -3.69455 -3.28951
upperneck 15.6299 -5.14332 6.00052
head 4.15723 -2.26473 2.28391
rclavicle 7.15625e-015 -1.07344e-014
rhumerus 12.7275 13.4439 -91.4299
rradius 90.3128
rwrist 17.5278
rhand 21.1032 1.48938
rfingers 7.12502
rthumb 45.5613 -21.7856
lclavicle 7.15625e-015 -1.07344e-014
lhumerus 24.0661 -23.9856 87.053
lradius 79.8035
lwrist 24.5491
lhand -16.3818 24.4901
lfingers 7.12502
lthumb 9.83181 54.2406
rfemur -25.9256 0.820931 21.5922
rtibia 13.1799
rfoot -6.61927 -6.48601
rtoes -14.7276
lfemur -28.3282 3.3039 -17.3725
ltibia 20.285
lfoot -9.77219 5.42964
ltoes -15.4002
